<?xml version="1.0" standalone="no"?>
<!DOCTYPE svg PUBLIC "-//W3C//DTD SVG 20010904//EN"
 "http://www.w3.org/TR/2001/REC-SVG-20010904/DTD/svg10.dtd">
<svg version="1.0" xmlns="http://www.w3.org/2000/svg"
 width="512.000000pt" height="512.000000pt" viewBox="0 0 512.000000 512.000000"
 preserveAspectRatio="xMidYMid meet">
<metadata>
Created by potrace 1.14, written by Peter Selinger 2001-2017
</metadata>
<g transform="translate(0.000000,512.000000) scale(0.100000,-0.100000)"
fill="#000000" stroke="none">
<path d="M2448 4893 c7 -3 16 -2 19 1 4 3 -2 6 -13 5 -11 0 -14 -3 -6 -6z"/>
<path d="M2276 4865 c-3 -8 -3 -15 0 -15 3 0 12 7 20 15 13 13 13 15 1 15 -8
0 -17 -7 -21 -15z"/>
<path d="M2425 4850 c-3 -5 1 -11 7 -13 7 -3 -9 -6 -35 -6 -30 -1 -46 3 -42 9
8 13 1 13 -38 -3 -30 -13 -47 -13 -124 -3 -23 3 -33 1 -33 -9 0 -7 -6 -16 -12
-18 -7 -3 12 -6 42 -8 l55 -2 -60 -7 c-81 -10 -195 -12 -195 -2 0 11 -210 -3
-260 -18 -52 -16 -77 -34 -86 -64 -3 -11 -14 -30 -23 -40 -9 -11 -11 -16 -4
-13 21 13 26 -14 6 -36 -22 -25 -57 -79 -58 -88 0 -3 -13 -17 -29 -30 -16 -13
-44 -38 -63 -56 -18 -17 -35 -27 -38 -22 -9 14 32 85 62 108 15 12 19 18 8 12
-43 -20 -85 -82 -82 -120 1 -21 5 -23 42 -18 105 14 150 17 121 8 -15 -6 -52
-13 -82 -17 -30 -3 -51 -10 -48 -15 3 -5 1 -9 -5 -9 -5 0 -12 6 -14 13 -4 10
-6 10 -6 0 -1 -7 -10 -13 -20 -13 -11 0 -34 -19 -53 -42 -18 -24 -36 -44 -40
-46 -4 -2 -4 -10 -1 -18 4 -10 -2 -14 -21 -14 -32 0 -35 -20 -3 -21 15 0 10
-5 -18 -14 -22 -7 -33 -13 -25 -14 13 -1 13 -3 0 -10 -8 -6 -18 -7 -22 -4 -10
6 -38 -15 -38 -29 0 -5 5 -6 10 -3 15 9 12 -2 -6 -30 -9 -14 -23 -25 -31 -25
-9 0 -6 -8 10 -22 26 -24 45 -78 27 -78 -5 0 -10 -7 -10 -15 0 -16 16 -21 22
-6 2 5 10 2 18 -7 13 -14 12 -15 -3 -9 -21 8 -22 -6 -2 -23 11 -9 12 -16 5
-25 -8 -9 -7 -15 2 -18 8 -3 6 -6 -5 -6 -15 -1 -16 -5 -7 -23 11 -22 10 -22
-4 -4 -11 14 -13 24 -5 38 6 11 8 26 5 34 -7 19 -52 18 -68 -1 -7 -9 -21 -24
-31 -34 -14 -15 -16 -23 -7 -45 5 -15 14 -25 18 -22 5 3 6 -8 4 -24 -3 -21 1
-32 12 -36 9 -3 16 -14 16 -23 0 -14 2 -14 10 -1 13 20 13 8 0 -25 -7 -18 -7
-33 1 -46 8 -15 6 -25 -9 -44 -11 -13 -22 -21 -26 -18 -3 3 -6 1 -6 -6 0 -6 8
-11 18 -9 17 3 18 -1 5 -64 -3 -15 -2 -36 3 -45 4 -10 8 -20 9 -23 8 -31 18
-50 26 -50 5 0 9 -8 9 -17 0 -10 7 -31 15 -46 8 -15 10 -25 4 -21 -6 3 6 -17
26 -45 20 -28 34 -51 29 -51 -4 0 1 -9 11 -20 10 -11 15 -23 12 -26 -4 -4 -9
1 -13 10 -3 9 -11 16 -17 16 -7 0 -7 -4 1 -12 7 -7 12 -22 12 -33 0 -12 3 -25
7 -29 5 -4 8 -11 8 -14 2 -19 19 -58 32 -70 8 -8 17 -27 20 -43 3 -16 9 -29
13 -29 5 0 11 -30 15 -67 4 -38 11 -79 16 -93 8 -21 8 -19 4 11 -4 27 -2 38
10 43 20 7 31 -20 16 -38 -8 -10 -9 -16 -1 -21 6 -3 8 -10 5 -15 -3 -5 0 -12
6 -15 5 -4 8 -13 5 -21 -3 -7 -1 -16 4 -19 14 -8 13 28 -1 42 -8 8 -8 13 0 17
6 4 11 13 11 19 0 7 -4 6 -10 -3 -9 -13 -10 -13 -10 1 0 8 5 20 12 27 12 12
-11 145 -39 226 -7 21 -13 51 -13 66 0 16 -7 30 -16 34 -12 5 -15 2 -10 -10 4
-10 1 -14 -6 -12 -23 8 -14 33 10 31 20 -3 27 7 23 31 -1 5 4 5 11 -1 7 -6 24
-14 38 -17 19 -6 21 -5 10 3 -12 8 -9 12 17 17 18 4 30 11 27 16 -4 6 2 7 17
3 13 -4 51 -9 84 -10 34 -1 67 -5 73 -9 7 -4 34 -10 60 -12 26 -3 63 -10 82
-16 47 -16 79 -18 85 -8 3 5 -5 12 -17 15 -13 4 -30 13 -38 20 -8 8 -19 14
-25 15 -24 5 -54 20 -60 29 -18 31 -135 64 -135 39 0 -7 -4 -7 -12 -1 -7 5
-30 10 -50 12 -35 1 -38 0 -39 -26 0 -15 -3 -23 -5 -16 -6 13 -33 6 -49 -13
-5 -6 -25 -14 -42 -18 -32 -5 -33 -5 -34 32 0 20 -4 87 -7 148 l-7 112 30 -5
c18 -3 38 2 50 11 19 14 19 15 -10 13 -19 -1 -29 2 -28 11 2 6 -2 11 -8 10 -6
-2 -13 15 -16 37 l-4 40 35 -34 c33 -32 35 -33 31 -11 -2 13 -8 26 -13 29 -29
20 -57 90 -29 75 9 -5 9 -4 0 6 -9 10 -7 16 9 30 12 9 22 24 24 33 3 20 -12
23 -19 5 -2 -7 -4 -1 -3 13 1 17 6 25 14 22 11 -5 16 -18 10 -26 -4 -4 78 -77
87 -77 4 0 25 -16 48 -35 48 -41 71 -47 29 -7 -28 27 -72 85 -72 96 0 3 11 -5
25 -18 14 -13 25 -29 25 -36 0 -7 3 -10 7 -7 3 4 15 0 25 -10 11 -9 18 -11 18
-5 0 7 -3 12 -8 12 -4 0 -13 10 -21 23 -13 19 -12 21 1 10 8 -7 19 -9 23 -5 5
4 5 2 1 -5 -6 -11 9 -27 26 -28 3 0 10 -4 15 -9 4 -5 3 -6 -4 -2 -6 3 -15 1
-19 -6 -4 -7 -3 -10 1 -5 5 4 17 0 27 -10 14 -12 18 -13 18 -3 0 11 3 11 12 2
7 -7 17 -12 22 -12 6 0 3 5 -6 10 -9 6 -27 25 -39 42 -20 27 -14 25 42 -20 36
-28 71 -52 79 -54 8 -2 19 -7 23 -13 5 -6 7 -5 5 3 -2 8 -8 14 -13 14 -22 0
-46 20 -41 33 3 8 -7 23 -21 35 -48 38 -10 20 43 -20 81 -61 156 -102 166 -92
5 5 -1 16 -17 26 -14 9 -23 21 -20 25 6 11 -20 33 -28 24 -4 -3 -7 1 -7 10 0
10 -5 17 -12 17 -6 0 -9 3 -5 6 3 3 -1 13 -9 22 -8 10 -14 21 -13 25 0 5 -10
18 -23 31 -21 20 -27 31 -32 61 -1 6 -5 16 -9 22 -6 9 -3 11 8 7 9 -4 14 -13
10 -22 -4 -12 -3 -13 10 -2 8 7 15 18 15 25 0 17 41 13 70 -8 12 -8 29 -13 36
-10 8 3 14 -1 14 -8 0 -7 3 -10 6 -7 3 3 17 -5 31 -18 15 -14 33 -22 43 -19
17 5 93 -62 85 -75 -2 -4 7 -12 22 -19 21 -10 28 -9 36 1 6 9 7 8 3 -4 -3 -11
2 -22 15 -28 11 -6 17 -14 15 -19 -3 -4 11 -15 30 -26 19 -10 34 -22 34 -27 0
-4 5 -8 11 -8 18 0 119 -71 119 -83 0 -7 -5 -5 -10 3 -8 12 -10 10 -10 -10 0
-16 -3 -20 -8 -13 -4 7 -19 10 -32 8 -14 -3 -35 -7 -48 -9 -58 -12 -281 61
-266 86 4 7 3 8 -4 4 -7 -4 -12 -3 -12 1 0 16 -38 12 -52 -5 -7 -9 -8 -13 -3
-10 6 3 30 -5 55 -19 25 -13 36 -21 26 -18 -11 3 -22 1 -25 -4 -8 -13 -77 3
-74 17 2 6 -4 9 -11 6 -8 -3 -28 2 -45 10 -26 14 -30 14 -25 1 3 -8 9 -14 12
-13 20 2 32 -3 29 -13 -2 -13 51 -31 65 -23 4 3 15 -2 24 -10 8 -9 27 -17 42
-18 15 0 32 -2 37 -3 6 -2 17 -3 25 -4 12 -1 12 -4 -3 -12 -9 -5 -22 -7 -29
-3 -7 4 -8 3 -4 -5 4 -6 13 -10 19 -9 7 1 22 -3 35 -10 12 -7 22 -10 22 -7 0
3 13 -1 29 -10 23 -11 31 -12 34 -2 4 9 6 9 6 -1 1 -7 6 -10 13 -6 7 5 8 3 4
-5 -5 -8 -1 -14 12 -18 16 -4 19 -9 13 -22 -5 -9 -15 -29 -22 -45 -10 -21 -15
-24 -17 -13 -3 16 -23 25 -21 10 3 -19 -2 -34 -9 -29 -11 6 -35 -61 -27 -74 3
-5 1 -10 -5 -10 -7 0 -8 -6 0 -19 7 -14 7 -22 0 -26 -10 -6 -7 -49 6 -96 2 -9
-7 -32 -21 -53 -24 -36 -24 -37 -8 -77 11 -28 19 -37 26 -30 17 17 26 13 20
-8 -4 -15 0 -19 14 -16 10 2 21 4 26 4 4 1 7 12 7 25 0 19 -4 23 -20 19 -11
-3 -20 0 -20 6 0 6 8 11 18 11 15 0 15 2 2 11 -11 8 -9 9 10 4 41 -12 45 -11
43 9 -2 28 15 68 27 61 6 -4 7 1 3 11 -5 13 -3 16 10 11 11 -4 17 -1 17 8 0 7
-9 17 -20 20 -11 3 -20 10 -20 15 0 14 62 69 97 86 18 9 31 19 28 23 -4 8 12
23 62 59 19 14 34 18 38 12 3 -5 -14 -22 -39 -38 -24 -15 -47 -35 -49 -45 -3
-10 -9 -16 -14 -15 -5 2 -22 -10 -38 -25 l-30 -28 44 16 c27 9 69 38 105 73
l60 57 6 -31 c10 -47 18 -56 40 -44 13 7 20 6 23 -3 3 -9 18 -6 58 11 68 29
75 30 71 13 -3 -12 -1 -12 13 -1 14 11 16 11 13 -1 -2 -9 4 -13 20 -11 12 2
22 0 22 -3 0 -4 -10 -15 -22 -26 -23 -19 -23 -19 22 -3 25 9 52 26 61 37 14
17 22 18 55 10 21 -5 40 -14 40 -21 1 -7 2 -16 3 -22 0 -5 8 -6 18 -3 11 5 14
3 8 -6 -4 -8 -2 -16 4 -21 9 -5 8 -11 -4 -24 -12 -12 -13 -16 -3 -16 7 0 21
-7 32 -15 18 -13 18 -14 -2 -12 -11 0 -18 5 -15 11 4 5 1 6 -7 1 -10 -6 -6
-14 15 -31 15 -12 34 -20 42 -17 7 3 13 0 13 -7 0 -6 -4 -9 -8 -6 -7 4 -49
-35 -44 -42 1 -1 9 -16 17 -32 9 -17 20 -28 25 -25 6 4 10 2 10 -3 0 -15 41
-53 51 -46 6 4 6 10 -1 19 -8 9 -8 15 0 20 5 3 10 5 11 3 8 -31 8 -59 -1 -53
-5 3 -10 1 -10 -6 0 -8 -4 -8 -15 1 -13 11 -14 10 -9 -5 6 -14 4 -16 -7 -11
-8 4 -6 1 4 -7 9 -8 17 -20 17 -28 0 -8 5 -6 13 6 16 20 38 13 36 -13 -1 -15
-2 -15 -6 1 -2 9 -8 17 -13 17 -12 0 -19 -36 -9 -51 4 -7 3 -19 -2 -26 -6 -7
-8 -17 -4 -23 4 -7 0 -10 -11 -8 -11 2 -20 -4 -22 -16 -3 -11 0 -16 7 -11 6 3
8 11 5 17 -4 6 2 6 15 -1 25 -14 28 -23 4 -14 -12 5 -15 2 -10 -10 6 -15 3
-16 -13 -7 -12 6 -20 21 -20 35 0 13 -5 27 -12 31 -7 4 -8 3 -4 -4 5 -8 -1
-12 -16 -11 -13 0 -17 3 -10 6 6 2 12 10 12 16 0 6 -17 -6 -37 -26 l-37 -38
-13 23 c-13 23 -13 23 -7 -4 4 -19 1 -33 -11 -45 -13 -13 -16 -27 -11 -61 7
-55 12 -62 39 -62 16 0 18 -3 9 -9 -10 -6 -8 -10 8 -14 12 -3 19 -10 16 -16
-4 -5 -2 -13 4 -16 17 -11 9 -130 -15 -219 -19 -70 -43 -133 -123 -328 -8 -21
-21 -38 -29 -38 -8 0 -12 -4 -9 -9 4 -5 -2 -8 -11 -7 -11 2 -31 -16 -53 -45
-19 -27 -43 -49 -52 -49 -9 0 -23 -7 -32 -15 -8 -8 -21 -15 -28 -15 -10 0 -9
-3 2 -10 13 -8 13 -10 -1 -10 -9 0 -29 -11 -44 -24 -16 -14 -32 -23 -37 -20
-4 3 -8 1 -8 -4 0 -6 -11 -13 -25 -16 -14 -4 -23 -11 -20 -16 3 -6 -3 -10 -14
-10 -12 0 -21 -5 -21 -11 0 -6 -7 -9 -15 -5 -8 3 -15 2 -15 -3 0 -14 -48 -23
-135 -27 -93 -4 -134 -12 -117 -23 9 -5 7 -13 -7 -28 -19 -20 -19 -21 6 -41
31 -25 116 -40 258 -46 61 -2 119 -8 129 -12 14 -5 17 -4 11 5 -6 10 -3 10 16
0 13 -7 35 -14 48 -15 13 -2 27 -8 31 -15 4 -6 18 -9 31 -5 13 3 19 3 12 0
-14 -6 14 -44 33 -44 7 0 14 -7 18 -15 3 -8 0 -14 -6 -12 -6 1 -13 -5 -15 -13
-3 -9 -1 -11 4 -5 13 16 42 15 36 -1 -3 -8 -1 -14 5 -14 6 0 12 5 14 12 2 6
12 12 22 14 13 2 15 -1 6 -11 -8 -10 -7 -14 2 -18 10 -4 10 -8 -2 -16 -12 -8
-6 -10 22 -8 22 1 38 7 38 15 0 6 6 12 14 12 8 0 23 13 32 29 10 17 21 28 25
25 4 -2 10 0 14 6 3 5 11 10 16 10 6 0 7 -5 3 -12 -5 -8 -2 -9 10 -5 10 4 20
7 22 7 3 0 3 3 1 8 -3 4 8 7 24 7 24 0 29 -4 25 -18 -4 -16 0 -18 30 -14 19 3
36 1 39 -3 9 -15 78 2 96 24 l17 21 7 -28 c7 -25 8 -26 20 -10 13 17 14 16 24
-11 8 -19 16 -26 27 -22 9 3 12 2 9 -5 -4 -5 -2 -16 4 -23 13 -15 4 -49 -10
-40 -5 3 -9 1 -9 -5 0 -5 -3 -18 -7 -28 -6 -16 -5 -16 10 -4 14 11 18 11 23
-3 3 -9 2 -22 -3 -29 -6 -6 -13 -21 -17 -31 -6 -16 -4 -17 10 -5 14 12 16 11
12 -6 -2 -11 -9 -19 -15 -18 -7 1 -9 -6 -5 -20 5 -17 7 -18 10 -6 4 21 39 31
46 14 3 -8 -2 -11 -13 -8 -13 3 -17 -3 -19 -28 -1 -18 -8 -40 -15 -48 -11 -14
-10 -14 6 -2 15 12 17 11 17 -5 0 -16 2 -17 10 -4 7 11 8 6 4 -16 -5 -24 -2
-31 10 -31 11 0 15 7 11 21 -3 12 -2 15 1 8 3 -7 15 -17 25 -23 17 -9 21 -6
30 20 8 21 15 28 26 24 14 -5 15 0 10 40 -4 26 -2 49 3 52 6 3 7 -2 4 -12 -5
-14 -4 -15 4 -4 7 10 7 21 1 33 -5 9 -8 21 -8 25 1 4 -1 16 -6 27 -6 14 -2 24
16 38 24 19 24 19 1 8 -18 -9 -27 -8 -38 1 -12 10 -12 13 2 24 14 9 14 14 4
20 -9 6 -11 4 -6 -6 4 -8 1 -6 -8 5 -8 10 -19 15 -25 11 -7 -3 -8 0 -5 9 3 9
11 13 18 9 6 -4 6 0 -2 9 -8 10 -10 26 -6 42 3 15 2 26 -4 26 -11 0 -11 18 0
35 3 6 4 22 1 37 -4 19 -10 25 -22 21 -13 -5 -14 -3 -3 8 14 15 16 33 3 25 -5
-3 -12 1 -15 10 -9 24 -7 46 4 39 7 -4 7 2 1 18 -6 14 -7 27 -4 30 3 3 2 11
-3 18 -11 18 -13 183 -2 190 6 4 5 15 -3 27 -10 17 -10 23 1 37 11 13 10 18
-4 28 -12 9 -16 22 -12 50 2 20 0 37 -5 37 -5 0 -9 5 -9 11 0 5 4 8 9 4 5 -3
12 -1 16 5 3 5 1 10 -4 10 -6 0 -11 8 -11 18 0 14 -2 15 -10 2 -8 -13 -10 -12
-10 3 0 9 4 17 8 17 5 0 9 18 10 41 1 24 -2 38 -8 34 -6 -3 -10 -2 -10 4 0 5
5 13 11 16 6 4 8 13 5 21 -3 7 -1 16 4 19 6 4 10 16 10 28 0 18 -2 19 -10 7
-5 -8 -10 -13 -11 -10 0 3 -2 13 -4 23 -3 14 21 37 38 37 3 0 3 -21 2 -47 -3
-39 -2 -43 6 -24 5 14 12 50 14 80 4 56 50 212 65 221 5 3 10 17 12 30 2 14 7
31 12 38 4 7 5 16 2 19 -3 3 10 23 28 45 19 21 47 65 64 96 28 53 36 83 47
172 3 19 9 70 15 113 23 176 4 253 -79 333 -41 41 -49 53 -35 56 16 3 18 22
21 228 2 124 5 246 7 273 2 26 -1 47 -5 47 -5 0 -6 7 -3 15 3 8 1 28 -4 45 -7
18 -7 30 -1 30 13 0 11 44 -2 57 -6 6 -12 25 -14 41 -1 16 -5 35 -9 41 -11 18
6 13 20 -6 13 -17 13 -17 7 2 -9 22 -61 103 -80 123 -7 7 -13 16 -13 20 0 4
-16 24 -35 45 -18 20 -32 37 -30 37 3 0 -16 21 -102 113 -20 22 -54 50 -75 63
-21 13 -38 28 -38 32 0 4 -8 12 -19 17 -65 35 -107 59 -111 64 -3 4 -24 15
-47 25 -24 11 -43 22 -43 27 0 4 -15 10 -32 14 -46 9 -150 46 -167 59 -11 8
-13 8 -7 -1 4 -8 2 -13 -4 -13 -6 0 -8 -4 -5 -10 3 -5 -3 -10 -15 -10 -12 0
-18 5 -15 10 4 6 -7 10 -27 10 -25 0 -29 3 -18 10 12 7 8 10 -15 10 -24 0 -27
-3 -15 -11 11 -7 3 -9 -30 -5 -25 2 -52 7 -60 10 -16 6 -76 15 -128 21 -17 2
-34 -1 -37 -5z m-581 -124 c-3 -8 -13 -17 -22 -20 -29 -9 -85 -45 -94 -58 -12
-20 -9 -31 6 -25 10 4 13 1 9 -8 -3 -8 -9 -12 -14 -9 -6 3 -16 1 -23 -5 -10
-9 -15 -8 -20 4 -3 8 -1 15 4 15 6 0 10 6 10 13 0 12 62 67 77 67 5 0 16 9 26
20 19 23 49 27 41 6z m26 -38 c0 -6 -3 -9 -6 -5 -4 3 -27 -8 -51 -24 -24 -17
-47 -29 -50 -26 -5 6 86 66 100 67 4 0 7 -5 7 -12z m90 5 c0 -5 -16 -18 -35
-31 -19 -12 -35 -18 -35 -12 0 6 -9 5 -25 -2 -13 -6 -23 -14 -20 -17 2 -4 -4
-7 -13 -7 -9 0 -28 -4 -42 -8 -14 -4 8 9 49 29 40 19 77 33 81 30 4 -3 13 2
20 10 14 17 20 19 20 8z m101 -16 c-33 -14 -40 -21 -30 -28 11 -7 11 -9 -3 -9
-10 0 -18 -5 -18 -11 0 -5 -4 -7 -10 -4 -5 3 -10 2 -10 -3 0 -6 -23 -16 -51
-23 -38 -10 -46 -15 -32 -20 16 -7 16 -8 -3 -8 -12 -1 -28 -9 -35 -18 -15 -18
-17 -18 41 5 12 5 13 3 3 -9 -7 -8 -43 -26 -80 -39 -37 -12 -73 -27 -80 -32
-6 -5 -20 -9 -30 -8 -10 1 -20 1 -23 0 -3 -1 -18 -3 -35 -5 -23 -3 -18 2 24
21 29 13 58 24 63 24 22 0 75 32 75 44 0 10 -8 12 -29 6 -15 -5 -28 -5 -28 -1
0 4 22 13 49 20 27 7 57 20 67 29 11 10 34 24 53 32 19 8 29 16 22 18 -8 3 -5
9 8 19 12 8 25 11 31 8 5 -3 17 -2 26 3 8 5 30 9 47 9 32 0 32 -1 -12 -20z
m-386 -87 c-3 -5 -12 -10 -18 -10 -7 0 -6 4 3 10 19 12 23 12 15 0z m111 -55
c-20 -15 -36 -19 -36 -10 0 5 38 23 50 24 3 0 -4 -6 -14 -14z m279 -15 c14 -6
16 -9 5 -10 -8 -1 -28 -4 -45 -6 -28 -4 -29 -3 -11 11 22 17 23 17 51 5z m-40
-30 c30 0 41 -15 12 -17 -12 -1 -59 -7 -104 -13 -57 -8 -87 -9 -100 -1 -14 8
-10 9 18 5 30 -5 38 -2 53 21 14 21 23 25 42 21 14 -4 24 -2 24 5 0 6 7 3 16
-5 8 -9 26 -16 39 -16z m-398 -36 c-3 -3 -12 -4 -19 -1 -8 3 -5 6 6 6 11 1 17
-2 13 -5z m443 -29 c0 -2 -16 -5 -35 -7 -40 -5 -45 -1 -12 11 19 7 47 5 47 -4z
m-99 -15 c5 0 9 -5 9 -11 0 -6 -7 -9 -15 -5 -8 3 -19 -2 -24 -12 -8 -16 -5
-18 24 -18 19 0 32 3 30 6 -2 3 13 6 33 7 l37 0 -37 -15 c-21 -8 -38 -18 -38
-21 0 -4 -15 -6 -32 -5 -19 1 -23 -1 -10 -3 21 -4 20 -6 -14 -24 -43 -21 -106
-44 -116 -41 -4 1 -40 -5 -80 -13 -68 -13 -407 -39 -415 -31 -2 2 45 9 104 17
81 10 100 15 78 20 -20 4 -1 8 55 9 66 2 76 4 45 9 -33 6 -20 9 80 21 66 7
111 15 100 17 -53 9 -65 14 -60 23 3 6 25 10 48 11 36 1 38 2 17 9 -20 6 -16
8 25 10 63 2 91 7 117 21 17 9 18 13 7 21 -11 8 -10 8 4 4 10 -3 23 -6 28 -6z
m-184 -26 c-3 -3 -12 -4 -19 -1 -8 3 -5 6 6 6 11 1 17 -2 13 -5z m501 -76 c23
-6 41 -12 39 -15 -5 -5 -127 24 -135 32 -7 7 22 2 96 -17z m495 5 c-7 -2 -21
-2 -30 0 -10 3 -4 5 12 5 17 0 24 -2 18 -5z m-551 -13 c10 0 17 -4 13 -10 -3
-5 -12 -7 -20 -3 -9 3 -21 0 -29 -6 -7 -6 -34 -9 -62 -7 -27 3 -52 5 -56 5 -5
1 -8 6 -8 12 0 7 20 9 63 5 45 -4 55 -3 37 4 -22 9 -21 9 9 5 18 -3 42 -5 53
-5z m58 -20 c0 -5 -2 -10 -4 -10 -3 0 -8 5 -11 10 -3 6 -1 10 4 10 6 0 11 -4
11 -10z m77 4 c-3 -3 -12 -4 -19 -1 -8 3 -5 6 6 6 11 1 17 -2 13 -5z m-1000
-30 c-3 -3 -12 -4 -19 -1 -8 3 -5 6 6 6 11 1 17 -2 13 -5z m630 -20 c-3 -3
-12 -4 -19 -1 -8 3 -5 6 6 6 11 1 17 -2 13 -5z m-112 -14 c-3 -5 -12 -10 -18
-10 -7 0 -6 4 3 10 19 12 23 12 15 0z m175 1 c0 -4 -11 -6 -25 -3 -14 2 -25 6
-25 8 0 2 11 4 25 4 14 0 25 -4 25 -9z m35 -1 c3 -5 2 -10 -4 -10 -5 0 -13 5
-16 10 -3 6 -2 10 4 10 5 0 13 -4 16 -10z m-255 -15 c-7 -8 -31 -18 -52 -22
-29 -4 -36 -8 -26 -14 9 -5 26 -6 39 -3 13 3 40 5 59 4 19 -2 43 -3 53 -3 25
-2 21 -17 -5 -18 -13 -1 -30 -3 -38 -4 -8 -1 -32 -3 -52 -4 -35 -1 -56 -21
-23 -21 8 0 15 -4 15 -8 0 -4 18 -8 41 -9 22 -1 50 -6 62 -10 17 -6 10 -9 -33
-14 l-55 -6 73 -1 c40 -1 71 -6 68 -11 -6 -10 -82 -5 -161 9 -48 9 -151 7
-161 -3 -3 -2 6 -7 20 -9 16 -3 23 -1 19 5 -4 6 0 8 11 4 9 -4 49 -9 89 -13
85 -7 100 -14 32 -14 l-49 0 39 -20 c22 -11 51 -20 65 -21 14 0 19 -3 11 -6
-11 -5 -11 -7 0 -15 10 -7 8 -8 -6 -3 -11 4 -40 14 -65 22 -25 9 -67 23 -95
33 -46 17 -113 35 -125 33 -3 0 -43 -3 -89 -7 -90 -7 -107 1 -25 11 27 3 58
10 69 15 19 8 19 8 -2 4 -12 -2 -23 0 -25 5 -5 13 -166 15 -180 1 -7 -7 -16
-12 -22 -12 -5 0 -5 5 2 12 16 16 90 38 111 32 9 -2 3 2 -14 10 -28 14 -24 15
85 17 98 2 106 3 55 9 -47 5 -52 7 -25 10 19 1 50 2 67 1 26 -1 31 2 27 14 -5
11 0 15 17 15 20 0 21 -2 9 -10 -11 -8 -4 -10 28 -8 23 1 42 5 42 9 0 4 28 12
63 17 34 5 64 10 66 11 2 0 -2 -6 -9 -14z m-640 -120 c0 -8 -2 -15 -4 -15 -2
0 -6 7 -10 15 -3 8 -1 15 4 15 6 0 10 -7 10 -15z m54 -4 c3 -5 -3 -11 -15 -14
-16 -4 -18 -3 -8 9 13 16 16 17 23 5z m739 2 c-7 -2 -21 -2 -30 0 -10 3 -4 5
12 5 17 0 24 -2 18 -5z m-542 -85 c39 -6 65 -14 59 -18 -12 -8 -136 12 -147
23 -9 10 8 9 88 -5z m142 -23 c-3 -9 -8 -14 -10 -11 -3 3 -2 9 2 15 9 16 15
13 8 -4z m-269 -90 c11 -8 16 -15 10 -15 -5 0 -18 7 -28 15 -11 8 -16 15 -10
15 5 0 18 -7 28 -15z m211 -41 c1 -12 -4 -21 -11 -21 -7 0 -10 6 -7 14 3 8 -2
13 -13 13 -16 0 -17 2 -4 10 21 13 33 8 35 -16z m-40 -15 c5 -5 -5 -4 -23 2
-17 6 -32 13 -32 16 0 7 43 -8 55 -18z m535 -4 c7 -8 8 -15 2 -15 -5 0 -15 7
-22 15 -7 8 -8 15 -2 15 5 0 15 -7 22 -15z m-883 -37 c-3 -7 -5 -2 -5 12 0 14
2 19 5 13 2 -7 2 -19 0 -25z m1067 -13 c43 -33 60 -32 21 1 -16 14 -21 21 -10
15 11 -5 36 -25 56 -43 19 -18 28 -27 19 -20 -23 17 -30 15 -23 -5 6 -17 5
-17 -13 0 -10 9 -36 31 -58 47 -21 17 -36 30 -32 30 4 0 22 -11 40 -25z m266
-59 c27 -21 67 -35 91 -30 14 2 18 1 9 -3 -12 -5 65 -25 137 -35 7 -1 14 -7
17 -15 3 -7 11 -13 18 -13 13 0 21 -8 58 -55 14 -17 13 -18 -2 -12 -10 3 -18
2 -18 -3 0 -16 -33 -12 -76 9 -25 12 -61 20 -96 20 -44 0 -67 6 -110 30 -74
42 -130 106 -110 125 8 9 64 -3 82 -18z m-129 -23 c13 -16 12 -17 -3 -4 -10 7
-18 15 -18 17 0 8 8 3 21 -13z m-81 -45 c0 -11 -12 -10 -30 2 -12 7 -10 9 8 7
12 0 22 -5 22 -9z m-324 -30 l19 -21 -27 18 c-29 18 -34 25 -20 25 5 0 17 -10
28 -22z m-726 -30 c0 -18 -2 -20 -9 -8 -6 8 -7 18 -5 22 9 14 14 9 14 -14z
m1453 -170 c13 3 18 1 13 -6 -4 -8 -2 -10 7 -6 9 3 16 -3 20 -16 4 -14 1 -19
-6 -16 -7 3 -31 10 -54 16 -29 8 -40 16 -36 26 3 9 10 11 20 5 9 -5 25 -6 36
-3z m15 -49 c28 -9 36 -8 48 8 9 10 13 13 9 6 -3 -8 4 -15 20 -19 42 -11 20
-17 -68 -20 -45 -2 -103 -7 -129 -12 -26 -5 -45 -6 -43 -2 8 13 -58 -13 -77
-30 -9 -9 -32 -16 -50 -17 -18 0 -25 1 -15 4 9 2 17 8 17 11 0 4 14 13 30 20
17 8 28 17 25 22 -6 9 21 22 50 25 12 1 30 7 40 13 22 12 90 8 143 -9z m-138
-64 c-28 -16 -60 -20 -44 -6 8 9 36 18 59 19 6 1 -1 -5 -15 -13z m271 -5 c5 0
9 -4 9 -9 0 -12 -38 -2 -47 12 -4 7 0 8 11 4 10 -4 22 -7 27 -7z m133 1 c-15
-16 -83 -37 -99 -31 -17 6 -16 8 8 14 15 3 26 10 23 14 -2 4 13 7 34 7 21 0
37 -2 34 -4z m-1399 -21 c3 -6 -1 -7 -9 -4 -18 7 -21 14 -7 14 6 0 13 -4 16
-10z m1035 -15 c0 -8 -7 -15 -15 -15 -16 0 -20 12 -8 23 11 12 23 8 23 -8z
m467 8 c-4 -3 -1 -13 6 -22 11 -14 10 -14 -5 -2 -16 12 -16 31 -1 31 4 0 3 -3
0 -7z m-1713 -32 c17 -19 17 -20 -2 -30 -15 -8 -21 -7 -25 4 -4 10 -1 12 10 8
13 -5 14 -3 4 15 -14 27 -10 28 13 3z m1606 9 c-8 -5 -33 -9 -55 -9 l-40 2 35
7 c19 4 44 8 55 9 16 0 17 -1 5 -9z m455 -100 c3 -5 2 -10 -4 -10 -5 0 -13 5
-16 10 -3 6 -2 10 4 10 5 0 13 -4 16 -10z m-2 -39 c2 -11 0 -25 -7 -32 -8 -9
-8 -10 1 -5 6 3 15 1 19 -5 4 -8 3 -9 -4 -5 -7 4 -12 2 -12 -5 0 -8 -7 -5 -20
6 -11 10 -17 22 -14 26 3 5 0 9 -7 9 -9 0 -9 4 1 15 6 8 9 19 5 26 -6 8 -2 8
13 0 11 -6 22 -19 25 -30z m-2045 -6 c-3 -3 -9 2 -12 12 -6 14 -5 15 5 6 7 -7
10 -15 7 -18z m1698 17 c-2 -4 4 -13 15 -20 16 -10 19 -9 19 5 0 14 2 15 9 4
6 -9 5 -19 -2 -26 -10 -10 -14 -10 -20 1 -12 21 -26 17 -22 -7 3 -12 1 -19 -2
-15 -15 15 -13 66 2 66 4 0 4 -4 1 -8z m87 -33 c-4 -15 -8 -17 -14 -8 -6 11 4
28 18 29 0 0 -1 -9 -4 -21z m44 -2 c9 -19 8 -24 -3 -24 -8 0 -13 6 -10 14 3 7
1 13 -4 13 -6 0 -10 5 -10 10 0 18 17 10 27 -13z m207 -98 c-3 -24 -5 -65 -5
-91 1 -27 -3 -49 -10 -54 -9 -5 -10 -1 -6 16 4 16 1 23 -14 27 -11 3 -19 14
-19 26 0 16 -3 18 -12 9 -7 -7 -16 -12 -22 -12 -6 0 -5 5 2 12 7 7 12 26 12
43 0 23 3 27 11 15 7 -11 8 0 3 35 -7 46 -6 49 10 36 9 -8 16 -10 15 -5 -4 22
2 24 22 6 17 -16 19 -27 13 -63z m-229 51 c-3 -4 2 -11 11 -14 9 -4 14 -9 10
-13 -3 -3 -15 2 -26 12 -15 14 -20 15 -20 4 0 -12 -2 -12 -9 1 -13 19 -5 29
19 23 11 -3 18 -9 15 -13z m-112 -26 c-7 -3 -9 -13 -6 -22 5 -13 3 -14 -7 -5
-14 13 -5 33 13 32 9 0 9 -2 0 -5z m112 -14 c3 -5 2 -10 -4 -10 -5 0 -13 5
-16 10 -3 6 -2 10 4 10 5 0 13 -4 16 -10z m58 -15 c-3 -9 -8 -14 -10 -11 -3 3
-2 9 2 15 9 16 15 13 8 -4z m254 -37 c-3 -7 -5 -2 -5 12 0 14 2 19 5 13 2 -7
2 -19 0 -25z m-307 -9 c0 -5 -4 -9 -8 -9 -5 0 -9 7 -9 15 0 8 4 12 9 9 4 -3 8
-9 8 -15z m-77 -4 c-3 -9 -8 -14 -10 -11 -3 3 -2 9 2 15 9 16 15 13 8 -4z m97
-120 c0 -2 -7 -8 -15 -15 -12 -10 -15 -10 -15 2 0 8 7 15 15 15 8 0 15 -1 15
-2z m-49 -32 c13 -16 12 -17 -3 -4 -17 13 -22 21 -14 21 2 0 10 -8 17 -17z
m89 -4 c0 11 4 10 13 -4 8 -10 18 -15 24 -12 5 3 10 0 10 -8 0 -8 -4 -12 -9
-9 -4 3 -8 -3 -8 -13 0 -15 -2 -16 -11 -3 -8 11 -12 12 -16 3 -7 -18 -24 -16
-17 2 4 8 14 15 23 16 12 0 11 2 -4 8 -14 6 -24 3 -33 -8 -10 -13 -10 -11 0
12 8 20 14 24 20 15 6 -10 8 -10 8 1z m-50 -43 c0 -8 -4 -17 -8 -20 -4 -2 -8
4 -8 15 0 10 4 19 8 19 4 0 8 -6 8 -14z m58 -31 c15 1 21 -3 18 -11 -3 -7 -2
-14 2 -16 4 -2 15 -18 25 -35 14 -25 15 -33 5 -33 -7 -1 -2 -10 11 -21 19 -16
26 -17 34 -7 6 9 7 7 3 -6 -4 -10 -2 -24 3 -30 11 -13 9 -41 -2 -52 -14 -15
-7 -33 11 -28 10 4 13 3 6 -3 -6 -4 -11 -28 -12 -53 -1 -25 -5 -67 -8 -95 -4
-27 -7 -64 -9 -80 -1 -17 -7 -40 -13 -50 -10 -18 -11 -19 -12 -2 0 12 -4 16
-12 11 -8 -5 -7 -1 2 10 17 21 25 60 10 51 -13 -8 -13 11 -1 53 6 18 6 30 2
28 -13 -9 -28 37 -27 82 1 25 -3 42 -10 42 -7 0 -15 7 -18 16 -3 8 -2 12 4 9
18 -11 11 4 -12 26 -14 13 -17 20 -8 17 11 -4 15 1 14 19 0 14 -5 28 -11 31
-6 4 -13 17 -17 30 -4 12 -12 20 -17 17 -5 -4 -9 -1 -9 5 0 7 9 14 20 17 23 6
24 8 9 34 -6 12 -17 18 -25 15 -8 -3 -14 -2 -14 3 0 14 13 21 24 12 6 -4 21
-7 34 -6z m-61 -67 c-3 -8 -6 -5 -6 6 -1 11 2 17 5 13 3 -3 4 -12 1 -19z m-57
-14 c0 -8 -4 -12 -10 -9 -6 3 -7 -1 -4 -9 3 -9 11 -13 17 -9 5 3 7 1 3 -5 -3
-6 -2 -14 4 -17 8 -5 7 -12 -2 -23 -10 -12 -10 -14 0 -8 6 4 12 4 13 -1 5 -53
5 -72 1 -95 -5 -32 -22 -38 -22 -8 0 11 5 20 10 20 6 0 10 5 10 12 0 6 -3 9
-6 5 -11 -10 -31 17 -39 52 -6 27 -4 32 6 26 11 -6 12 -5 2 6 -24 25 -16 69
15 78 1 1 2 -6 2 -15z m326 -78 c-3 -23 -9 -87 -13 -143 -5 -91 -8 -103 -25
-103 -21 0 -20 21 2 33 9 4 3 5 -12 2 -27 -5 -38 7 -18 20 6 4 7 11 4 17 -5 7
0 9 14 6 27 -7 27 -3 2 22 -12 12 -26 18 -32 14 -6 -4 -9 -3 -7 2 34 66 45 84
51 84 4 0 2 12 -4 26 -9 20 -9 27 1 33 7 5 12 11 12 15 -3 20 1 25 15 19 13
-5 15 -15 10 -47z m-485 17 c13 -16 12 -17 -3 -4 -17 13 -22 21 -14 21 2 0 10
-8 17 -17z m269 -3 c0 -5 -5 -10 -11 -10 -5 0 -7 5 -4 10 3 6 8 10 11 10 2 0
4 -4 4 -10z m-52 -25 c-3 -3 -9 2 -12 12 -6 14 -5 15 5 6 7 -7 10 -15 7 -18z
m132 -390 c0 -8 -4 -15 -10 -15 -5 0 -10 7 -10 15 0 8 5 15 10 15 6 0 10 -7
10 -15z m-235 -54 c-3 -6 -11 -11 -16 -11 -5 0 -4 6 3 14 14 16 24 13 13 -3z
m225 -2 c0 -11 -4 -18 -10 -14 -5 3 -7 12 -3 20 7 21 13 19 13 -6z m-259 -42
c-10 -9 -11 -8 -5 6 3 10 9 15 12 12 3 -3 0 -11 -7 -18z m259 -627 c0 -5 -4
-10 -10 -10 -5 0 -10 5 -10 10 0 6 5 10 10 10 6 0 10 -4 10 -10z m-117 -43
c-2 -4 -10 -3 -17 2 -7 6 -16 8 -19 4 -4 -3 -7 -1 -7 5 0 6 8 12 18 14 18 4
34 -11 25 -25z m175 -12 c-3 -3 -9 2 -12 12 -6 14 -5 15 5 6 7 -7 10 -15 7
-18z m57 -163 c-3 -3 -11 0 -18 7 -9 10 -8 11 6 5 10 -3 15 -9 12 -12z m88
-82 c-3 -11 -9 -20 -15 -20 -5 0 -4 9 2 20 6 11 12 20 14 20 2 0 2 -9 -1 -20z
m-78 -49 c3 -5 1 -12 -5 -16 -5 -3 -10 1 -10 9 0 18 6 21 15 7z m76 -5 c5 3 9
0 9 -6 0 -15 -23 -7 -26 8 -1 7 0 8 3 2 2 -5 9 -8 14 -4z"/>
<path d="M1853 4303 c-13 -2 -23 -8 -23 -13 0 -8 69 6 79 16 5 5 -25 3 -56 -3z"/>
<path d="M1667 4278 c-15 -10 79 -8 118 2 22 6 11 7 -38 6 -38 0 -74 -4 -80
-8z"/>
<path d="M1636 4161 c-12 -5 3 -8 40 -8 42 -1 52 1 34 7 -32 10 -50 10 -74 1z"/>
<path d="M1650 4099 c25 -4 63 -7 85 -7 l40 0 -40 9 c-22 4 -60 8 -85 7 l-45
-1 45 -8z"/>
<path d="M1788 4083 c6 -2 18 -2 25 0 6 3 1 5 -13 5 -14 0 -19 -2 -12 -5z"/>
<path d="M2618 3353 c12 -2 30 -2 40 0 9 3 -1 5 -23 4 -22 0 -30 -2 -17 -4z"/>
<path d="M2738 3353 c7 -3 16 -2 19 1 4 3 -2 6 -13 5 -11 0 -14 -3 -6 -6z"/>
<path d="M2548 3343 c6 -2 18 -2 25 0 6 3 1 5 -13 5 -14 0 -19 -2 -12 -5z"/>
<path d="M3350 2910 c0 -5 5 -10 11 -10 5 0 7 5 4 10 -3 6 -8 10 -11 10 -2 0
-4 -4 -4 -10z"/>
<path d="M3230 2683 c0 -6 8 -17 18 -24 16 -13 16 -13 2 6 -8 11 -16 22 -17
24 -2 2 -3 0 -3 -6z"/>
<path d="M3228 2633 c7 -3 16 -2 19 1 4 3 -2 6 -13 5 -11 0 -14 -3 -6 -6z"/>
<path d="M3237 2614 c-8 -8 1 -24 14 -24 5 0 9 7 9 15 0 15 -12 20 -23 9z"/>
<path d="M3385 2449 c-11 -16 -1 -19 13 -3 7 8 8 14 3 14 -5 0 -13 -5 -16 -11z"/>
<path d="M3606 4157 c3 -10 9 -15 12 -12 3 3 0 11 -7 18 -10 9 -11 8 -5 -6z"/>
<path d="M1056 3938 c3 -5 10 -6 15 -3 13 9 11 12 -6 12 -8 0 -12 -4 -9 -9z"/>
<path d="M1055 3899 c4 -13 13 -31 21 -39 12 -12 14 -11 14 10 0 20 -2 22 -10
10 -8 -12 -10 -11 -10 7 0 12 -5 25 -11 29 -8 4 -9 -1 -4 -17z"/>
<path d="M1875 3830 c3 -5 8 -10 11 -10 2 0 4 5 4 10 0 6 -5 10 -11 10 -5 0
-7 -4 -4 -10z"/>
<path d="M1910 3812 c0 -7 -4 -10 -10 -7 -6 4 -7 -2 -1 -17 5 -13 14 -22 20
-21 6 2 13 -8 17 -22 3 -14 10 -25 15 -25 5 0 3 14 -6 30 -9 17 -21 30 -28 30
-9 0 -9 2 0 8 8 5 9 13 3 22 -7 11 -10 12 -10 2z"/>
<path d="M1420 3736 c0 -2 8 -10 18 -17 15 -13 16 -12 3 4 -13 16 -21 21 -21
13z"/>
<path d="M1137 3674 c-6 -34 -7 -33 15 -25 14 5 15 9 4 30 l-13 24 -6 -29z"/>
<path d="M1745 3625 c17 -13 30 -30 30 -37 0 -6 7 -13 15 -15 13 -4 13 -3 0 6
-12 9 -11 11 8 11 12 0 25 -7 28 -15 7 -18 21 -20 21 -2 0 7 -30 27 -66 45
-60 30 -63 30 -36 7z"/>
<path d="M1904 3579 c-4 -7 -3 -9 4 -5 5 3 13 0 15 -6 4 -9 6 -10 6 -1 1 17
-16 25 -25 12z"/>
<path d="M1480 3576 c0 -2 8 -10 18 -17 15 -13 16 -12 3 4 -13 16 -21 21 -21
13z"/>
<path d="M1990 3550 c0 -6 7 -10 15 -10 8 0 15 2 15 4 0 2 -7 6 -15 10 -8 3
-15 1 -15 -4z"/>
<path d="M2200 3554 c0 -8 72 -36 78 -30 2 3 -1 8 -9 10 -8 3 -26 10 -41 15
-16 6 -28 8 -28 5z"/>
<path d="M2298 3513 c7 -3 16 -2 19 1 4 3 -2 6 -13 5 -11 0 -14 -3 -6 -6z"/>
<path d="M1480 3300 c-8 -5 -10 -10 -5 -10 6 0 17 5 25 10 8 5 11 10 5 10 -5
0 -17 -5 -25 -10z"/>
<path d="M1640 3145 c-38 -11 -68 -28 -97 -57 -40 -39 -43 -47 -34 -100 0 -4
13 0 29 8 15 7 36 14 47 15 11 0 14 3 8 6 -20 7 13 62 37 63 4 0 12 -16 19
-35 7 -19 19 -35 27 -35 8 0 14 3 14 8 0 4 19 6 41 4 32 -3 40 -1 34 8 -5 9
-4 11 4 6 19 -12 50 4 53 27 l3 22 20 -22 c20 -23 52 -33 39 -12 -4 8 1 9 17
5 15 -4 9 1 -13 14 -62 34 -60 44 7 41 24 -1 19 3 -25 19 -75 28 -162 34 -230
15z m63 -15 c-69 -10 -140 -46 -158 -78 -8 -15 -14 -22 -15 -17 -1 44 104 104
180 103 l45 0 -52 -8z m91 -9 c4 -5 -3 -7 -14 -4 -23 6 -26 13 -6 13 8 0 17
-4 20 -9z m-84 -36 c0 -8 -7 -15 -15 -15 -9 0 -12 6 -9 15 4 8 10 15 15 15 5
0 9 -7 9 -15z"/>
<path d="M2943 3135 c0 -8 4 -15 9 -15 4 0 8 7 8 15 0 8 -4 15 -8 15 -5 0 -9
-7 -9 -15z"/>
<path d="M2220 2829 c0 -5 -4 -7 -10 -4 -5 3 -10 1 -10 -6 0 -7 -7 -20 -15
-29 -14 -15 -14 -18 0 -30 18 -15 20 -41 4 -57 -14 -14 -2 -52 16 -49 18 3 32
16 17 16 -7 0 -12 4 -12 8 0 13 34 11 42 -2 8 -12 -21 -48 -33 -40 -10 6 -50
-14 -47 -24 1 -4 -12 -23 -30 -42 -18 -19 -32 -42 -32 -52 0 -20 -19 -34 -42
-30 -10 2 -26 -1 -35 -7 -16 -9 -15 -11 10 -20 16 -6 40 -11 55 -11 30 -1 66
-23 55 -34 -4 -4 0 -4 9 -1 10 4 34 1 55 -6 69 -23 91 -20 125 17 18 19 38 34
45 34 7 0 13 10 13 21 0 17 3 19 13 10 11 -8 17 -5 27 17 7 15 13 30 12 35 -1
4 4 7 11 7 18 0 34 49 30 95 -5 60 -22 102 -49 120 -45 29 -81 5 -63 -43 8
-20 5 -25 -27 -38 -41 -17 -65 -15 -72 5 -3 8 0 11 7 7 7 -5 9 -1 4 10 -5 13
-3 15 8 9 12 -8 12 -6 1 8 -12 14 -12 19 2 32 9 10 16 12 16 5 0 -6 7 -10 17
-8 11 2 16 14 17 36 1 17 -2 32 -6 32 -5 0 -8 -14 -8 -30 0 -28 -2 -29 -20
-18 -13 8 -19 20 -16 31 3 12 -2 17 -15 17 -10 0 -19 5 -19 10 0 6 -11 10 -25
10 -14 0 -25 -5 -25 -11z m65 -109 c-3 -5 -12 -7 -20 -3 -21 7 -19 13 6 13 11
0 18 -4 14 -10z"/>
<path d="M1412 2760 c0 -14 2 -19 5 -12 2 6 2 18 0 25 -3 6 -5 1 -5 -13z"/>
<path d="M3060 2771 c0 -6 4 -13 10 -16 6 -3 7 1 4 9 -7 18 -14 21 -14 7z"/>
<path d="M3097 2759 c-4 -16 -3 -18 9 -8 7 6 11 15 8 20 -8 13 -11 11 -17 -12z"/>
<path d="M1420 2720 c0 -5 7 -7 15 -4 8 4 15 8 15 10 0 2 -7 4 -15 4 -8 0 -15
-4 -15 -10z"/>
<path d="M1440 2670 c0 -5 5 -10 11 -10 5 0 7 5 4 10 -3 6 -8 10 -11 10 -2 0
-4 -4 -4 -10z"/>
<path d="M2670 2576 c0 -2 7 -7 16 -10 8 -3 12 -2 9 4 -6 10 -25 14 -25 6z"/>
<path d="M2500 2554 c0 -8 5 -12 10 -9 6 4 8 11 5 16 -9 14 -15 11 -15 -7z"/>
<path d="M2797 2530 c10 -11 25 -20 35 -20 10 0 18 -7 18 -15 0 -9 6 -12 15
-9 26 10 16 33 -21 49 -52 22 -68 20 -47 -5z"/>
<path d="M2462 2521 c-11 -7 -11 -9 0 -14 9 -3 15 1 15 9 0 8 -1 14 -1 14 -1
0 -7 -4 -14 -9z"/>
<path d="M1786 2464 c-5 -14 -4 -15 9 -4 17 14 19 20 6 20 -5 0 -12 -7 -15
-16z"/>
<path d="M2800 2470 c0 -4 7 -7 15 -6 23 3 26 12 5 13 -11 1 -20 -2 -20 -7z"/>
<path d="M2761 2461 c-8 -5 -19 -7 -26 -5 -6 3 -18 -2 -25 -11 -12 -14 -11
-18 0 -25 10 -6 7 -10 -13 -16 -16 -3 -30 -4 -33 -1 -3 3 -20 1 -37 -4 -18 -5
-63 -14 -102 -19 -117 -16 -195 -33 -195 -42 0 -5 -5 -6 -10 -3 -6 4 -25 -1
-43 -10 -35 -18 -36 -18 -147 -35 -41 -6 -104 -20 -139 -31 -47 -16 -78 -20
-120 -16 l-56 6 45 -16 c25 -9 59 -25 75 -37 24 -17 117 -56 132 -56 2 0 -4
11 -13 25 -9 14 -18 39 -20 55 -3 26 0 30 21 30 14 0 33 4 43 9 30 16 248 55
261 46 5 -3 26 3 46 12 l37 18 23 -27 22 -26 19 25 c43 57 89 8 59 -63 -16
-38 -21 -40 -46 -18 -16 14 -18 14 -24 -4 -6 -20 -60 -46 -75 -37 -4 3 -13 -2
-20 -10 -11 -13 -8 -14 16 -10 101 15 114 15 108 0 -4 -8 -1 -15 6 -15 6 0 8
5 5 10 -3 6 2 10 12 11 17 0 17 1 0 8 -16 6 -16 9 -5 18 29 23 100 52 115 46
12 -5 15 -2 10 10 -4 12 -1 17 9 17 9 0 42 25 74 55 31 31 66 62 76 71 18 14
17 14 -13 10 -21 -3 -36 1 -45 12 -7 9 -8 13 -3 10 6 -4 17 -3 25 3 12 7 12 9
1 9 -7 0 -11 6 -7 15 6 17 -2 19 -23 6z"/>
<path d="M2880 2425 c-14 -16 -3 -20 19 -6 8 5 9 11 3 15 -5 3 -15 -1 -22 -9z"/>
<path d="M1772 2411 c-31 -23 -72 -104 -67 -132 4 -21 84 -103 93 -95 2 3 -1
13 -7 24 -6 11 -7 23 -3 27 4 3 0 5 -8 3 -29 -6 -24 49 9 99 35 52 36 59 18
78 -11 11 -17 10 -35 -4z"/>
<path d="M2582 2182 c-9 -6 -10 -15 -3 -33 6 -14 10 -18 11 -9 1 8 3 23 5 33
4 20 4 19 -13 9z"/>
<path d="M2170 2141 c0 -6 -8 -11 -17 -12 -10 0 -13 -3 -6 -5 18 -8 49 11 34
20 -6 4 -11 2 -11 -3z"/>
<path d="M2250 2140 l-45 -7 42 -1 c23 -1 45 3 48 8 3 6 5 9 3 8 -2 0 -23 -4
-48 -8z"/>
<path d="M2545 2139 c-4 -6 -5 -12 -2 -15 2 -3 7 2 10 11 7 17 1 20 -8 4z"/>
<path d="M2578 2113 c6 -2 18 -2 25 0 6 3 1 5 -13 5 -14 0 -19 -2 -12 -5z"/>
<path d="M2545 2010 c-3 -5 -1 -10 4 -10 6 0 11 5 11 10 0 6 -2 10 -4 10 -3 0
-8 -4 -11 -10z"/>
<path d="M3503 1546 c2 -6 27 -27 55 -47 49 -35 51 -37 25 -38 -62 -1 -61 -1
-49 -27 6 -13 16 -24 21 -24 6 0 4 -4 -3 -8 -9 -7 -10 -15 -2 -33 l11 -24 -5
25 c-5 24 -4 24 9 6 19 -26 19 -50 0 -43 -8 4 -17 2 -20 -4 -4 -5 -3 -8 2 -7
14 4 53 -22 53 -35 0 -8 -3 -8 -9 1 -7 11 -9 11 -14 -1 -3 -8 4 -25 16 -38 12
-13 20 -26 19 -29 -19 -27 -20 -39 -6 -51 14 -12 14 -35 -3 -93 -4 -13 -2 -16
8 -11 9 6 10 3 4 -11 -4 -10 -10 -29 -13 -42 -2 -12 -13 -28 -23 -36 -10 -7
-16 -16 -12 -19 3 -4 1 -7 -5 -7 -5 0 -20 -15 -31 -32 -23 -38 -71 -94 -71
-85 0 4 -18 -13 -41 -38 -27 -29 -46 -42 -56 -38 -11 4 -14 2 -9 -5 14 -23
-200 -152 -258 -156 -13 0 -22 -4 -19 -8 2 -5 -4 -8 -14 -8 -10 0 -27 -6 -38
-14 -11 -7 -54 -26 -95 -41 -137 -50 -362 -46 -545 12 -213 67 -350 181 -408
341 -18 53 -20 77 -18 336 l2 279 -28 -7 c-15 -4 -48 -11 -73 -16 -52 -10
-100 -22 -150 -38 -63 -21 -203 -52 -233 -52 -16 0 -42 -9 -58 -21 -39 -27
-235 -42 -396 -28 -123 10 -141 7 -153 -26 -5 -12 -29 -32 -57 -45 -178 -83
-391 -280 -742 -688 l-71 -82 0 -245 0 -245 2560 0 2560 0 0 450 0 449 -52 25
c-29 13 -88 34 -131 46 -43 12 -115 38 -160 59 -45 21 -104 43 -132 50 -27 7
-87 30 -133 52 -46 22 -125 55 -175 73 -51 19 -105 41 -122 50 -16 9 -49 20
-71 26 -23 6 -58 24 -79 40 -21 17 -49 30 -63 30 -14 0 -44 16 -68 35 -23 19
-46 35 -52 35 -5 0 -47 20 -94 44 -106 55 -294 109 -285 82z"/>
<path d="M3256 1361 c-10 -10 -13 -22 -8 -25 5 -3 14 6 20 19 14 30 11 31 -12
6z"/>
<path d="M3210 1340 c-9 -6 -10 -10 -3 -10 6 0 15 5 18 10 8 12 4 12 -15 0z"/>
<path d="M3305 1339 c-4 -6 -5 -12 -2 -15 2 -3 7 2 10 11 7 17 1 20 -8 4z"/>
<path d="M3540 1210 c0 -5 5 -10 11 -10 5 0 7 5 4 10 -3 6 -8 10 -11 10 -2 0
-4 -4 -4 -10z"/>
<path d="M3575 1209 c-4 -6 -5 -12 -2 -15 2 -3 7 2 10 11 7 17 1 20 -8 4z"/>
<path d="M3531 1064 c0 -11 3 -14 6 -6 3 7 2 16 -1 19 -3 4 -6 -2 -5 -13z"/>
<path d="M3410 955 c0 -8 4 -15 10 -15 5 0 7 7 4 15 -4 8 -8 15 -10 15 -2 0
-4 -7 -4 -15z"/>
</g>
</svg>
